<svg xmlns="http://www.w3.org/2000/svg" width="646.093" height="63.969" viewBox="0 0 2522.816 249.781">
  <defs>
    <style>
      .cls-1 {
        fill: #222;
        fill-rule: evenodd;
      }
    </style>
  </defs>
  <path id="type_less_think_more" data-name="type less, think more" class="cls-1" d="M37.828,138.6H58.495v78.44q0,19.545,8.267,28.292t25.058,8.743a64.786,64.786,0,0,0,14.337-1.55,84.17,84.17,0,0,0,12.658-3.875,82.842,82.842,0,0,0,10.334-4.909A32.834,32.834,0,0,0,136,238.83l-1.809-8.525a45.249,45.249,0,0,1-10.721,2.454,95.279,95.279,0,0,1-10.462.646q-9.3,0-13.3-6.163t-4-22.1V138.6h34.1V121.805h-34.1V89H86.911A110.084,110.084,0,0,0,68.7,93.776q-8.137,2.973-10.2,4.521v20.925a67.1,67.1,0,0,0-20.667,9.026V138.6Zm163,112.375a126.974,126.974,0,0,1-4,12.4,47.515,47.515,0,0,1-4,7.75H161.308l-3.358,6.2a45.061,45.061,0,0,0,1.291,7.75,68.276,68.276,0,0,0,2.584,8.137,50.052,50.052,0,0,0,3.616,7.492,24.586,24.586,0,0,0,4.65,5.812,50.729,50.729,0,0,0,12.4-3.229,37.467,37.467,0,0,0,12.4-8.654,84.5,84.5,0,0,0,12.4-16.662,173.1,173.1,0,0,0,12.4-27L261.8,137.834a51.571,51.571,0,0,0,14.725-6.212v-9.817H226.666v9.817a36.165,36.165,0,0,0,14.208,6.22l-20.15,64.773-4.133,16.84h-0.517l-4.391-16.582-26.092-65.031a56.446,56.446,0,0,0,14.725-6.478v-9.559H132.375v9.817a71.648,71.648,0,0,0,6.587,3.625,39.948,39.948,0,0,0,7.1,2.587Zm145.958,41.85a45.21,45.21,0,0,0-8.784-4.287,40.983,40.983,0,0,0-8.266-1.95v-37.68a48.456,48.456,0,0,0,10.721,4,64.375,64.375,0,0,0,13.82,1.163,71.567,71.567,0,0,0,27.254-4.909,56.635,56.635,0,0,0,20.409-13.95A61.505,61.505,0,0,0,414.861,213a90.4,90.4,0,0,0,4.521-29.45q0-17.05-3.487-29.321t-9.817-20.15a38.145,38.145,0,0,0-15.5-11.625,53.935,53.935,0,0,0-20.537-3.746q-16.8,0-26.221,8.267A48.444,48.444,0,0,0,330,147.639h-0.258V118.705h-8.784q-4.134.522-10.2,1.292t-12.529,1.938q-6.461,1.162-12.529,2.712a67.65,67.65,0,0,0-10.2,3.358v9.817l17.05,2.075V286.6a92.783,92.783,0,0,0-17.05,6.22v9.816h71.3v-9.816Zm27.254-141.954q5.292,11.5,5.3,32.679,0,27.386-6.975,41.592t-21.7,14.208a42.547,42.547,0,0,1-12.142-1.421,28.338,28.338,0,0,1-8.783-4.521V164.689q2.84-12.915,9.687-19.117a22.623,22.623,0,0,1,15.629-6.2Q368.748,139.372,374.045,150.868Zm171.4,73.237q-5.171,4.136-14.337,6.717a65.165,65.165,0,0,1-17.7,2.583q-19.9,0-30.1-12.141t-10.463-32.55h79.309q3.354-19.375.387-32.809t-10.591-21.7a43.061,43.061,0,0,0-19.117-11.883,81.815,81.815,0,0,0-24.671-3.617q-30.745,0-48.05,17.309t-17.308,50.375a85.524,85.524,0,0,0,4.262,27.9,59.154,59.154,0,0,0,12.53,21.312,54.291,54.291,0,0,0,20.666,13.692q12.4,4.776,28.417,4.779a76.157,76.157,0,0,0,18.729-2.2,68.463,68.463,0,0,0,15.242-5.683,45.974,45.974,0,0,0,11.108-8.009,32.481,32.481,0,0,0,6.587-8.912ZM512.659,144.28q4.111,10.851,2.305,31H473.63a137.041,137.041,0,0,1,2.568-20.537,41.962,41.962,0,0,1,4.747-12.917,16.274,16.274,0,0,1,6.934-6.587,21.852,21.852,0,0,1,9.114-1.809Q508.546,133.43,512.659,144.28Zm194.757,96.875a85.113,85.113,0,0,0-17.05-6.208V56.706h-8.784q-5.424.521-12.271,1.421T655.62,60.193q-6.848,1.163-12.788,2.713a57.874,57.874,0,0,0-9.3,3.1v9.817L653.166,77.9V234.935a85.065,85.065,0,0,0-17.05,6.22v9.817h71.3v-9.817Zm124.512-17.05q-5.171,4.136-14.337,6.717a65.165,65.165,0,0,1-17.7,2.583q-19.9,0-30.1-12.141t-10.462-32.55h79.308q3.354-19.375.387-32.809t-10.591-21.7a43.061,43.061,0,0,0-19.117-11.883,81.81,81.81,0,0,0-24.671-3.617q-30.746,0-48.05,17.309T719.3,186.389a85.5,85.5,0,0,0,4.263,27.9A59.137,59.137,0,0,0,736.087,235.6a54.3,54.3,0,0,0,20.666,13.692q12.4,4.776,28.417,4.779a76.151,76.151,0,0,0,18.729-2.2,68.463,68.463,0,0,0,15.242-5.683,45.974,45.974,0,0,0,11.108-8.009,32.507,32.507,0,0,0,6.588-8.912ZM799.14,144.28q4.111,10.851,2.305,31H760.112a136.925,136.925,0,0,1,2.567-20.537,41.988,41.988,0,0,1,4.747-12.917,16.274,16.274,0,0,1,6.934-6.587,21.854,21.854,0,0,1,9.115-1.809Q795.027,133.43,799.14,144.28Zm116.485,90.675a23.144,23.144,0,0,1-13.692,4.392,59.619,59.619,0,0,1-6.587-.388,13,13,0,0,1-6.33-2.454l-12.658-28.158h-8.783a131.267,131.267,0,0,0-8.267,17.05,58.693,58.693,0,0,0-4.391,18.858,92.7,92.7,0,0,0,22.733,7.233,132.987,132.987,0,0,0,25.575,2.584q24.279,0,38.75-10.2t14.466-28.029a30.7,30.7,0,0,0-4.779-17.309A49.889,49.889,0,0,0,939.779,186a99.657,99.657,0,0,0-15.5-9.429q-8.4-4.13-15.5-8.267a57.476,57.476,0,0,1-11.883-8.912,15.366,15.366,0,0,1-4.78-11.238,14.98,14.98,0,0,1,4-10.2q4-4.516,11.754-4.521a65.885,65.885,0,0,1,7.491.388,23.855,23.855,0,0,1,6.459,1.679l10.85,26.35h8.783q2.84-7.751,5.942-17.179a94.557,94.557,0,0,0,4.133-17.7,98.667,98.667,0,0,0-21.054-6.071,144.761,144.761,0,0,0-25.963-2.2,68.454,68.454,0,0,0-18.729,2.455,48.307,48.307,0,0,0-14.854,6.845,33.3,33.3,0,0,0-9.816,10.721,27.85,27.85,0,0,0-3.617,14.079q0,10.851,4.779,18.342a51.761,51.761,0,0,0,11.883,13.046,88.286,88.286,0,0,0,15.5,9.687q8.392,4.136,15.5,8.267a55.424,55.424,0,0,1,11.884,9.042,16.114,16.114,0,0,1,4.779,11.625A14.062,14.062,0,0,1,915.625,234.955Zm114.185,0a23.158,23.158,0,0,1-13.69,4.392,59.56,59.56,0,0,1-6.59-.388,12.964,12.964,0,0,1-6.33-2.454l-12.66-28.158h-8.783a131.267,131.267,0,0,0-8.267,17.05,58.693,58.693,0,0,0-4.391,18.858,92.7,92.7,0,0,0,22.733,7.233,133.033,133.033,0,0,0,25.578,2.584q24.27,0,38.75-10.2,14.46-10.2,14.46-28.029a30.657,30.657,0,0,0-4.78-17.309A49.629,49.629,0,0,0,1053.96,186a99.423,99.423,0,0,0-15.5-9.429q-8.4-4.13-15.5-8.267a57.318,57.318,0,0,1-11.88-8.912,15.362,15.362,0,0,1-4.78-11.238,14.984,14.984,0,0,1,4-10.2q4.005-4.516,11.76-4.521a65.9,65.9,0,0,1,7.49.388,23.958,23.958,0,0,1,6.46,1.679l10.85,26.35h8.78q2.835-7.751,5.94-17.179a95.081,95.081,0,0,0,4.14-17.7,98.863,98.863,0,0,0-21.06-6.071,144.742,144.742,0,0,0-25.96-2.2,68.463,68.463,0,0,0-18.731,2.455,48.318,48.318,0,0,0-14.854,6.845,33.3,33.3,0,0,0-9.816,10.721,27.85,27.85,0,0,0-3.617,14.079q0,10.851,4.779,18.342a51.761,51.761,0,0,0,11.883,13.046,88.4,88.4,0,0,0,15.5,9.687q8.4,4.136,15.5,8.267a55.368,55.368,0,0,1,11.89,9.042,16.131,16.131,0,0,1,4.78,11.625A14.069,14.069,0,0,1,1029.81,234.955Zm65.61,61.225a48.683,48.683,0,0,0,17.05-7.362,59.185,59.185,0,0,0,13.31-12.4,61.062,61.062,0,0,0,8.78-15.371,44.585,44.585,0,0,0,3.23-16.275,39.08,39.08,0,0,0-2.46-14.467,28.639,28.639,0,0,0-6.58-10.2,30.763,30.763,0,0,0-19.89-8.654,15.29,15.29,0,0,0-7.37,4,32.045,32.045,0,0,0-9.56,17.954,27.2,27.2,0,0,0,.39,10.85,57.006,57.006,0,0,1,10.72,4.65,28.95,28.95,0,0,1,8.66,7.492,21.562,21.562,0,0,1-1.29,8.525,30.121,30.121,0,0,1-4.53,8.266,36.484,36.484,0,0,1-7.1,6.975,29.551,29.551,0,0,1-9.3,4.65ZM1212.45,138.6h20.66v78.44q0,19.545,8.27,28.292t25.06,8.743a64.864,64.864,0,0,0,14.34-1.55,83.956,83.956,0,0,0,12.65-3.875,82.945,82.945,0,0,0,10.34-4.909,32.8,32.8,0,0,0,6.84-4.908l-1.8-8.525a45.348,45.348,0,0,1-10.73,2.454,95.172,95.172,0,0,1-10.46.646q-9.3,0-13.3-6.163t-4.01-22.1V138.6h34.1V121.805h-34.1V89h-8.78a109.834,109.834,0,0,0-18.21,4.779q-8.145,2.973-10.21,4.521v20.925a67.063,67.063,0,0,0-20.66,9.026V138.6ZM1473.1,241.155a30.21,30.21,0,0,0-8.27-3.883c-2.93-.864-5.85-1.639-8.78-2.329V173.068q0-16.044-2.84-26.531t-8.27-16.7a28.529,28.529,0,0,0-13.56-8.67,63.813,63.813,0,0,0-18.47-2.463,40.089,40.089,0,0,0-13.69,2.325,48.449,48.449,0,0,0-12.01,6.33,53.612,53.612,0,0,0-9.95,9.3,46.732,46.732,0,0,0-6.98,11.237h-0.25V56.706h-8.79q-5.16.521-11.88,1.421t-13.43,2.067q-6.72,1.163-12.79,2.713a82.609,82.609,0,0,0-9.95,3.1v9.817l19.64,2.075V234.935a71.882,71.882,0,0,0-17.05,6.22v9.817h68.45v-9.817a33.135,33.135,0,0,0-6.84-3.883,58.307,58.307,0,0,0-7.36-2.333v-72a40.894,40.894,0,0,1,10.33-16.445,24.115,24.115,0,0,1,17.57-7.124q12.39,0,16.66,10.491t4.26,32.76v52.316a57.061,57.061,0,0,0-7.75,2.85q-3.36,1.555-6.46,3.366v9.817h68.46v-9.817Zm79.83,0a45.912,45.912,0,0,0-7.75-3.5q-4.14-1.423-9.3-2.717V118.705h-8.79q-4.65.522-10.85,1.421t-12.66,2.067q-6.45,1.163-12.27,2.712a87.1,87.1,0,0,0-9.68,3.1v9.817l17.05,2.079v95.022c-3.28.868-6.29,1.776-9.05,2.729a54.889,54.889,0,0,0-8,3.5v9.817h71.3v-9.817Zm-52-147.766q6.12,5.171,15.83,5.167t15.83-5.167q6.135-5.165,6.13-13.95,0-9.04-6.13-14.208t-15.83-5.167q-9.705,0-15.83,5.167t-6.13,14.208Q1494.8,88.224,1500.93,93.389Zm219.13,147.766q-6.72-4.4-17.05-6.212V173.068q0-16.044-2.97-26.531t-8.52-16.7a29.52,29.52,0,0,0-13.56-8.67,61.582,61.582,0,0,0-18.09-2.463q-15.495,0-26.35,7.88a51.621,51.621,0,0,0-16.27,18.729h-0.26V118.705h-8.78q-5.43.522-12.02,1.421t-12.91,2.2c-4.23.864-8.14,1.768-11.76,2.713a54.639,54.639,0,0,0-8.78,2.97v9.817l17.05,2.079v95.022a85.855,85.855,0,0,0-17.05,6.232v9.817h68.46v-9.817a51.593,51.593,0,0,0-6.85-3.754,46.536,46.536,0,0,0-7.36-2.462v-72q3.615-10.875,10.72-17.224a24.525,24.525,0,0,1,16.92-6.345q11.88,0,16.53,9.195t4.65,25.51v60.862q-4.395,1.556-7.62,2.979c-2.15.953-4.35,2.03-6.58,3.237v9.817h68.45v-9.817Zm83.7-109.533a59.972,59.972,0,0,0,5.56,3.637,29.833,29.833,0,0,0,6.07,2.6q-5.685,9.094-13.05,20a159.733,159.733,0,0,1-15.89,20h-6.71V56.706h-8.79q-4.65.521-11.36,1.421t-13.69,2.067q-6.975,1.163-13.18,2.713a67.392,67.392,0,0,0-9.82,3.1v9.817l19.64,2.075V234.935a84.865,84.865,0,0,0-17.05,6.22v9.817h70.01v-9.817a82.159,82.159,0,0,0-7.75-3.9,36.611,36.611,0,0,0-8.01-2.337V189.23l8.52,2.584q3.36,5.944,6.72,12.012t6.97,12.529q3.615,6.461,8.14,13.434t10.46,14.983l6.98,6.2h43.66v-9.817l-13.18-6.224q-6.72-7.52-13.3-15.948t-12.53-16.6q-5.94-8.167-11.11-15.431t-9.04-12.449q3.36-3.378,7.49-7.665t8.66-8.969q4.515-4.674,9.04-9.744t8.39-10.269a63.741,63.741,0,0,0,9.43-2.595q4.26-1.561,9.17-3.641v-9.817h-60.45v9.817Zm285.46,109.533a68.884,68.884,0,0,0-6.59-3.366,64.249,64.249,0,0,0-7.88-2.85V165.012q2.58-11.65,7.88-18.645t14.59-6.995q12.405,0,16.15,9.583t3.75,29.785v56.2a56.1,56.1,0,0,0-12.92,6.216v9.817h67.17v-9.817a53.782,53.782,0,0,0-17.05-6.212V173.589q0-16.311-2.59-26.923t-7.62-16.828a26.51,26.51,0,0,0-12.4-8.67,53.383,53.383,0,0,0-16.92-2.463q-15.495,0-26.35,8.784a48.084,48.084,0,0,0-15.5,22.991q-1.545-9.814-5.17-16.016a29.694,29.694,0,0,0-8.65-9.688A30.567,30.567,0,0,0,2048.14,120a57.063,57.063,0,0,0-12.14-1.292q-14.73,0-25.19,8.525a45,45,0,0,0-14.59,20.667h-0.26V118.705h-8.79c-2.75.348-6.16,0.775-10.2,1.292s-8.23,1.163-12.53,1.938-8.48,1.679-12.53,2.712a67.434,67.434,0,0,0-10.2,3.358v9.817l17.05,2.079v95.022c-3.1.868-6.12,1.82-9.04,2.858a70.213,70.213,0,0,0-8.01,3.374v9.817h67.16v-9.817a44.624,44.624,0,0,0-12.91-6.216V162.42q2.835-10.353,8.91-16.7a19.181,19.181,0,0,1,14.34-6.345,14.412,14.412,0,0,1,14.98,10.232,48.372,48.372,0,0,1,2.71,13.6q0.645,8.289.65,20.2v51.537a48.916,48.916,0,0,0-7.1,2.979q-3.24,1.683-5.82,3.237v9.817h64.59v-9.817Zm94.8-27.512a55.916,55.916,0,0,0,12.66,21.441,58.6,58.6,0,0,0,21.44,13.95q12.915,5.038,30.49,5.038a83.857,83.857,0,0,0,28.8-4.65,59.231,59.231,0,0,0,21.7-13.434,57.557,57.557,0,0,0,13.56-21.312,80.862,80.862,0,0,0,4.65-28.287,91.969,91.969,0,0,0-3.87-27.255,54.223,54.223,0,0,0-12.27-21.441,57.287,57.287,0,0,0-21.44-13.95q-13.05-5.037-31.13-5.038a82.8,82.8,0,0,0-28.68,4.65,57.769,57.769,0,0,0-35.26,34.746,78.841,78.841,0,0,0-4.78,28.288A86.682,86.682,0,0,0,2184.02,213.643Zm37.59-51.667q1.68-9.942,5.04-16.016a21.531,21.531,0,0,1,8.26-8.784,23.683,23.683,0,0,1,11.63-2.712q9.045,0,14.98,3.746a26.475,26.475,0,0,1,9.43,10.462,51.746,51.746,0,0,1,4.91,16.275,147.791,147.791,0,0,1,1.42,21.442,149.709,149.709,0,0,1-1.68,24.412q-1.68,9.948-5.04,16.017a22.246,22.246,0,0,1-8,8.783,20.155,20.155,0,0,1-10.34,2.712q-9.81,0-16.01-3.745a26.678,26.678,0,0,1-9.82-10.463,49.805,49.805,0,0,1-5.04-16.4,147.024,147.024,0,0,1-1.42-21.312A149.79,149.79,0,0,1,2221.61,161.976Zm211.44-10.462V141.439q-1.29-5.94-3.35-12.529a32.361,32.361,0,0,0-4.91-10.2,28.28,28.28,0,0,0-13.44,2.842,46.281,46.281,0,0,0-11.88,8.267,62.4,62.4,0,0,0-9.43,11.366,59.933,59.933,0,0,0-6.07,11.884h-1.03V118.705h-8.79c-2.75.348-6.16,0.775-10.2,1.292s-8.23,1.163-12.53,1.938-8.48,1.679-12.53,2.712a67.434,67.434,0,0,0-10.2,3.358v9.817l17.05,2.079v95.022q-4.14,1.041-8.27,2.341a47.2,47.2,0,0,0-8.78,3.891v9.817h74.91v-9.817a47.843,47.843,0,0,0-10.33-4.274,62.547,62.547,0,0,0-10.33-1.942V168.612q3.345-8.289,7.49-11.916a36.3,36.3,0,0,1,7.23-5.182h35.39Zm119.1,72.591q-5.175,4.136-14.34,6.717a65.177,65.177,0,0,1-17.7,2.583q-19.89,0-30.09-12.141t-10.47-32.55h79.31q3.36-19.375.39-32.809t-10.59-21.7a43.066,43.066,0,0,0-19.12-11.883,81.8,81.8,0,0,0-24.67-3.617q-30.75,0-48.05,17.309t-17.31,50.375a85.28,85.28,0,0,0,4.27,27.9A59.162,59.162,0,0,0,2456.3,235.6a54.291,54.291,0,0,0,20.67,13.692q12.405,4.776,28.42,4.779a76.246,76.246,0,0,0,18.73-2.2,68.557,68.557,0,0,0,15.24-5.683,46.105,46.105,0,0,0,11.11-8.009,32.464,32.464,0,0,0,6.58-8.912Zm-32.79-79.825q4.11,10.851,2.3,31h-41.33a136.487,136.487,0,0,1,2.57-20.537,41.868,41.868,0,0,1,4.74-12.917,16.269,16.269,0,0,1,6.94-6.587,21.833,21.833,0,0,1,9.11-1.809Q2515.24,133.43,2519.36,144.28Z" transform="translate(-37.844 -56.719)"/>
</svg>
